<svg width="20" height="20" viewBox="0 0 20 20" fill="none" xmlns="http://www.w3.org/2000/svg">
<path d="M13.577 7.02562L5.65811 4.386C5.3578 4.28589 5.20764 4.23584 5.10382 4.31067C5 4.3855 5 4.54378 5 4.86034V10.8333L13.577 7.9743C14.1653 7.7782 14.4594 7.68015 14.4594 7.49996C14.4594 7.31977 14.1653 7.22172 13.577 7.02562Z" fill="#8E8EA9"/>
<path d="M5 10.8333V4.86034C5 4.54378 5 4.3855 5.10382 4.31067C5.20764 4.23584 5.3578 4.28589 5.65811 4.386L13.577 7.02562C14.1653 7.22172 14.4594 7.31977 14.4594 7.49996C14.4594 7.68015 14.1653 7.7782 13.577 7.9743L5 10.8333ZM5 10.8333V15V15.8333" stroke="#8E8EA9" stroke-width="2" stroke-linecap="round"/>
</svg>
