<svg width="20" height="20" viewBox="0 0 20 20" fill="none" xmlns="http://www.w3.org/2000/svg">
<path fill-rule="evenodd" clip-rule="evenodd" d="M10.8333 2.50008C10.8333 2.03984 10.4602 1.66675 9.99999 1.66675C9.53975 1.66675 9.16666 2.03984 9.16666 2.50008V3.12508H8.70214C6.84792 3.12508 5.31325 4.56676 5.1975 6.41737L5.01333 9.36191C4.94312 10.4846 4.56621 11.5665 3.92366 12.4897C3.34309 13.3239 3.85994 14.4761 4.86905 14.5972L7.70832 14.9379V15.8334C7.70832 17.0991 8.73434 18.1251 9.99999 18.1251C11.2656 18.1251 12.2917 17.0991 12.2917 15.8334V14.9379L15.1309 14.5972C16.14 14.4761 16.6569 13.3239 16.0763 12.4897C15.4338 11.5665 15.0569 10.4846 14.9866 9.36191L14.8025 6.41737C14.6867 4.56676 13.1521 3.12508 11.2978 3.12508H10.8333V2.50008ZM8.70214 4.37508C7.50797 4.37508 6.51961 5.30356 6.44507 6.4954L6.2609 9.43994C6.1764 10.7909 5.72286 12.0928 4.94965 13.2038C4.90769 13.2641 4.94504 13.3473 5.01798 13.3561L8.1327 13.7299C9.37311 13.8787 10.6269 13.8787 11.8673 13.7299L14.982 13.3561C15.0549 13.3473 15.0923 13.2641 15.0503 13.2038C14.2771 12.0928 13.8236 10.7909 13.7391 9.43994L13.5549 6.4954C13.4804 5.30356 12.492 4.37508 11.2978 4.37508H8.70214ZM9.99999 16.8751C9.42469 16.8751 8.95832 16.4087 8.95832 15.8334V15.2084H11.0417V15.8334C11.0417 16.4087 10.5753 16.8751 9.99999 16.8751Z" fill="#4A5154"/>
<path d="M14.1667 8.83325C15.8236 8.83325 17.1667 7.49011 17.1667 5.83325C17.1667 4.1764 15.8236 2.83325 14.1667 2.83325C12.5099 2.83325 11.1667 4.1764 11.1667 5.83325C11.1667 7.49011 12.5099 8.83325 14.1667 8.83325Z" fill="#E84646" stroke="white"/>
</svg>
