<svg width="15" height="16" viewBox="0 0 15 16" fill="none" xmlns="http://www.w3.org/2000/svg">
<path fill-rule="evenodd" clip-rule="evenodd" d="M0 6.5C0 3.67157 0 2.25736 0.87868 1.37868C1.75736 0.5 3.17157 0.5 6 0.5H10.0098C10.8273 0.5 11.2361 0.5 11.6036 0.652241C11.9711 0.804482 12.2602 1.09351 12.8382 1.67157L13.8284 2.66176C14.4065 3.23982 14.6955 3.52885 14.8478 3.89639C15 4.26394 15 4.67269 15 5.49019V9.5C15 12.3284 15 13.7426 14.1213 14.6213C13.604 15.1386 12.9011 15.3514 11.8333 15.4389V13.5L11.8333 13.4384C11.8334 12.7843 11.8335 12.1965 11.7695 11.7208C11.6997 11.2015 11.5375 10.6687 11.1011 10.2322C10.6647 9.79579 10.1318 9.63366 9.61249 9.56384C9.13678 9.49988 8.54906 9.49993 7.89494 9.5L7.83333 9.5H6.33333L6.27173 9.5C5.6176 9.49993 5.02988 9.49988 4.55418 9.56384C4.03482 9.63366 3.50201 9.79579 3.06557 10.2322C2.62913 10.6687 2.46699 11.2015 2.39717 11.7208C2.33321 12.1965 2.33327 12.7843 2.33333 13.4384L2.33333 13.5V15.3284C1.71075 15.2042 1.24753 14.9902 0.87868 14.6213C0 13.7426 0 12.3284 0 9.5V6.5ZM9.83333 13.5V15.499C9.57004 15.5 9.29259 15.5 9 15.5H6C5.37947 15.5 4.827 15.5 4.33333 15.4907V13.5C4.33333 12.7646 4.33546 12.3137 4.37933 11.9873C4.4179 11.7005 4.47275 11.6526 4.47926 11.6469L4.47978 11.6464L4.48025 11.6459C4.48593 11.6394 4.53383 11.5846 4.82067 11.546C5.14702 11.5021 5.59796 11.5 6.33333 11.5H7.83333C8.56871 11.5 9.01964 11.5021 9.34599 11.546C9.63284 11.5846 9.68073 11.6394 9.68641 11.6459L9.68689 11.6464L9.68741 11.6469C9.69392 11.6526 9.74877 11.7005 9.78733 11.9873C9.83121 12.3137 9.83333 12.7646 9.83333 13.5ZM3.33333 3.66667C2.78105 3.66667 2.33333 4.11438 2.33333 4.66667C2.33333 5.21895 2.78105 5.66667 3.33333 5.66667H7.5C8.05228 5.66667 8.5 5.21895 8.5 4.66667C8.5 4.11438 8.05228 3.66667 7.5 3.66667H3.33333Z" fill="#404B52"/>
</svg>
