<svg width="16" height="16" viewBox="0 0 16 16" fill="none" xmlns="http://www.w3.org/2000/svg">
<path fill-rule="evenodd" clip-rule="evenodd" d="M0.87868 0.87868C0 1.75736 0 3.17157 0 6V10C0 12.8284 0 14.2426 0.87868 15.1213C1.75736 16 3.17157 16 6 16H10C12.8284 16 14.2426 16 15.1213 15.1213C16 14.2426 16 12.8284 16 10V6C16 3.17157 16 1.75736 15.1213 0.87868C14.2426 0 12.8284 0 10 0H6C3.17157 0 1.75736 0 0.87868 0.87868ZM11.2 4.33333C11.7523 4.33333 12.2 4.78105 12.2 5.33333V12.4444C12.2 12.9967 11.7523 13.4444 11.2 13.4444C10.6477 13.4444 10.2 12.9967 10.2 12.4444V5.33333C10.2 4.78105 10.6477 4.33333 11.2 4.33333ZM5.79999 7.111C5.79999 6.55872 5.35227 6.111 4.79999 6.111C4.2477 6.111 3.79999 6.55872 3.79999 7.111V12.4443C3.79999 12.9966 4.2477 13.4443 4.79999 13.4443C5.35227 13.4443 5.79999 12.9966 5.79999 12.4443V7.111ZM8.99997 8.889C8.99997 8.33671 8.55225 7.889 7.99997 7.889C7.44768 7.889 6.99997 8.33671 6.99997 8.889V12.4446C6.99997 12.9968 7.44768 13.4446 7.99997 13.4446C8.55225 13.4446 8.99997 12.9968 8.99997 12.4446V8.889Z" fill="#8E8EA9"/>
</svg>
