<svg width="16" height="16" viewBox="0 0 16 16" fill="none" xmlns="http://www.w3.org/2000/svg">
<path fill-rule="evenodd" clip-rule="evenodd" d="M4.51668 0.79613C1.84343 2.09113 0 4.83029 0 8C0 8.19691 0.00711436 8.39217 0.0211001 8.58551L6.16288 6.93983L4.51668 0.79613ZM7.41483 0.0210753L9.19006 6.64633L9.20173 6.68971C9.25172 6.87543 9.32224 7.13737 9.35319 7.37754C9.3922 7.68024 9.40137 8.15903 9.11967 8.64693C8.83798 9.13484 8.41876 9.36629 8.1371 9.48387C7.91364 9.57714 7.65153 9.64705 7.4657 9.6966L7.4223 9.7082L0.796279 11.4836C2.09134 14.1567 4.83041 16 8 16C12.4183 16 16 12.4183 16 8C16 3.58172 12.4183 0 8 0C7.8032 0 7.60807 0.00710597 7.41483 0.0210753Z" fill="#8E8EA9"/>
<path d="M6.44709 2.20444C6.19539 1.26509 6.06954 0.795413 5.61843 0.605431C5.16732 0.415449 4.80555 0.618662 4.08202 1.02509C3.75084 1.21112 3.43261 1.4209 3.12991 1.65317C2.29643 2.29272 1.59708 3.09018 1.0718 4C0.546509 4.90982 0.205569 5.9142 0.068441 6.95579C0.0186398 7.33407 -0.00392516 7.71457 0.000556553 8.09438C0.010348 8.92419 0.0152437 9.3391 0.405328 9.63478C0.795413 9.93046 1.26509 9.80461 2.20445 9.55291L6.06815 8.51764C6.97883 8.27362 7.43417 8.15161 7.64128 7.79289C7.84839 7.43417 7.72638 6.97883 7.48236 6.06815L6.44709 2.20444Z" fill="#8E8EA9"/>
</svg>
