<svg width="16" height="16" viewBox="0 0 16 16" fill="none" xmlns="http://www.w3.org/2000/svg">
<path fill-rule="evenodd" clip-rule="evenodd" d="M16 6.46154C16 3.86869 16 2.57226 15.3259 1.64097C15.034 1.23781 14.659 0.891651 14.2223 0.622266C13.2134 0 11.8089 0 9 0H7C4.19108 0 2.78661 0 1.77772 0.622266C1.34096 0.891651 0.965956 1.23781 0.674122 1.64097C0 2.57226 0 3.86869 0 6.46154C0 9.05439 0 10.3508 0.674122 11.2821C0.965956 11.6853 1.34096 12.0314 1.77772 12.3008C2.65907 12.8444 3.8423 12.9131 6 12.9218V12.9231L7.12071 14.9921C7.49895 15.6904 8.50105 15.6904 8.87929 14.9921L10 12.9231V12.9218C12.1577 12.9131 13.3409 12.8444 14.2223 12.3008C14.659 12.0314 15.034 11.6853 15.3259 11.2821C16 10.3508 16 9.05439 16 6.46154ZM4 7.38461C4.55228 7.38461 5 6.97134 5 6.46154C5 5.95174 4.55228 5.53846 4 5.53846C3.44772 5.53846 3 5.95174 3 6.46154C3 6.97134 3.44772 7.38461 4 7.38461ZM9 6.46154C9 6.97134 8.55229 7.38461 8 7.38461C7.44772 7.38461 7 6.97134 7 6.46154C7 5.95174 7.44772 5.53846 8 5.53846C8.55229 5.53846 9 5.95174 9 6.46154ZM13 6.46154C13 6.97134 12.5523 7.38461 12 7.38461C11.4477 7.38461 11 6.97134 11 6.46154C11 5.95174 11.4477 5.53846 12 5.53846C12.5523 5.53846 13 5.95174 13 6.46154Z" fill="#8E8EA9"/>
</svg>
