<svg width="16" height="16" viewBox="0 0 16 16" fill="none" xmlns="http://www.w3.org/2000/svg">
<path fill-rule="evenodd" clip-rule="evenodd" d="M9.06054 0.467415L10.7854 2.19226L12.0311 0.946575C12.8658 0.11184 14.2192 0.11184 15.0539 0.946575C15.8887 1.7813 15.8887 3.13467 15.0539 3.96941L13.8082 5.21512L15.5326 6.93951C16.1184 7.52529 16.1184 8.47503 15.5326 9.06082L13.8084 10.7851L13.0384 10.0151C12.2037 9.1804 10.8503 9.1804 10.0156 10.0151C9.18086 10.8499 9.18086 12.2033 10.0156 13.038L10.7855 13.808L9.06063 15.5329C8.47485 16.1187 7.5251 16.1187 6.93931 15.5329L5.21502 13.8086L3.97021 15.0535C3.13548 15.8882 1.78211 15.8882 0.947375 15.0535C0.112648 14.2187 0.112648 12.8653 0.947375 12.0306L2.19219 10.7858L0.467172 9.06079C-0.118615 8.475 -0.118615 7.52525 0.467172 6.93947L2.19195 5.21468L2.96216 5.9849C3.7969 6.81963 5.15026 6.81963 5.98499 5.9849C6.81971 5.15016 6.81971 3.79679 5.98499 2.96206L5.21479 2.19185L6.93922 0.467417C7.52501 -0.11837 8.47475 -0.118371 9.06054 0.467415Z" fill="#8E8EA9"/>
</svg>
