<svg width="16" height="16" viewBox="0 0 16 16" fill="none" xmlns="http://www.w3.org/2000/svg">
<path fill-rule="evenodd" clip-rule="evenodd" d="M9.42283 2.22796L9.42414 2.24088L9.42649 2.26404C9.51181 3.04953 10.4315 3.43048 11.0473 2.93538L11.0653 2.92067L11.0753 2.91247C11.4714 2.59226 12.0448 2.62086 12.407 2.97889L12.4162 2.98805L13.0119 3.5837L13.0211 3.59289C13.3791 3.95511 13.4077 4.52854 13.0875 4.92459L13.0793 4.93465L13.0645 4.95271C12.5694 5.56846 12.9504 6.48814 13.7359 6.57346L13.7591 6.57582L13.772 6.57713C14.2785 6.63076 14.6637 7.05646 14.6667 7.56574L14.6667 7.57875V8.42117L14.6667 8.43403C14.6638 8.94336 14.2785 9.36911 13.7719 9.42271L13.7591 9.42401L13.7363 9.42633C12.9506 9.51157 12.5696 10.4314 13.0649 11.0472L13.0794 11.065L13.0874 11.0749C13.4077 11.471 13.3791 12.0445 13.021 12.4067L13.012 12.4158L12.4163 13.0115L12.4071 13.0207C12.0449 13.3787 11.4714 13.4073 11.0754 13.0871L11.0653 13.0789L11.0473 13.0642C10.4315 12.5691 9.51184 12.95 9.42652 13.7355L9.42415 13.7588L9.42282 13.772C9.36916 14.2784 8.94352 14.6636 8.43429 14.6666L8.42113 14.6666H7.57887L7.56587 14.6666C7.05658 14.6636 6.63089 14.2783 6.57725 13.7719L6.57594 13.759L6.57359 13.7357C6.48825 12.9503 5.56859 12.5693 4.95284 13.0644L4.93476 13.0792L4.92467 13.0874C4.52863 13.4076 3.95521 13.379 3.59299 13.021L3.58378 13.0118L2.98815 12.4162L2.97897 12.4069C2.62095 12.0447 2.59235 11.4713 2.91256 11.0753L2.92078 11.0652L2.9355 11.0471C3.43059 10.4314 3.04965 9.51169 2.26416 9.42637L2.241 9.42401L2.22808 9.42271C1.72161 9.36908 1.33635 8.94338 1.33339 8.43408L1.33337 8.4211L1.33337 7.57882L1.33339 7.56569C1.33639 7.05644 1.7216 6.63079 2.22801 6.57714L2.24108 6.57581L2.26451 6.57343C3.0499 6.48804 3.43079 5.5685 2.93581 4.95276L2.92089 4.93446L2.91253 4.92421C2.59241 4.52819 2.621 3.95486 2.97894 3.59266L2.98826 3.58331L3.58381 2.98776L3.59302 2.97858C3.95524 2.62056 4.52866 2.59196 4.9247 2.91216L4.93484 2.92043L4.95278 2.93506C5.56856 3.43027 6.48837 3.04927 6.57363 2.26368L6.57595 2.24079L6.57725 2.22803C6.63084 1.7215 7.0566 1.3362 7.56594 1.33327L7.57877 1.33325H8.42122L8.43421 1.33327C8.9435 1.33623 9.3692 1.72149 9.42283 2.22796ZM8.00004 10.6666C9.4728 10.6666 10.6667 9.47268 10.6667 7.99992C10.6667 6.52716 9.4728 5.33325 8.00004 5.33325C6.52728 5.33325 5.33337 6.52716 5.33337 7.99992C5.33337 9.47268 6.52728 10.6666 8.00004 10.6666Z" fill="#8E8EA9"/>
<path d="M9.42414 2.24088L8.82719 2.30135L8.82721 2.30151L9.42414 2.24088ZM9.42283 2.22796L10.0198 2.16748L10.0195 2.16478L9.42283 2.22796ZM9.42649 2.26404L8.82955 2.32467L8.83 2.32883L9.42649 2.26404ZM11.0473 2.93538L11.4232 3.40299L11.4265 3.40035L11.0473 2.93538ZM11.0653 2.92067L11.4445 3.38564L11.4446 3.38554L11.0653 2.92067ZM11.0753 2.91247L10.6981 2.44589L10.696 2.4476L11.0753 2.91247ZM12.407 2.97889L12.8308 2.55407L12.8288 2.55216L12.407 2.97889ZM12.4162 2.98805L12.8405 2.56379L12.8399 2.56324L12.4162 2.98805ZM13.0119 3.5837L13.4367 3.15997L13.4361 3.15943L13.0119 3.5837ZM13.0211 3.59289L13.4478 3.1711L13.4459 3.16917L13.0211 3.59289ZM13.0875 4.92459L13.5523 5.30394L13.554 5.30182L13.0875 4.92459ZM13.0793 4.93465L12.6144 4.55531L12.6143 4.55544L13.0793 4.93465ZM13.0645 4.95271L12.5995 4.57349L12.5969 4.57674L13.0645 4.95271ZM13.7359 6.57346L13.6711 7.16997L13.6752 7.17039L13.7359 6.57346ZM13.7591 6.57582L13.6984 7.17275L13.6986 7.17276L13.7591 6.57582ZM13.772 6.57713L13.8352 5.98046L13.8325 5.98019L13.772 6.57713ZM14.6667 7.56574L15.2667 7.56495L15.2667 7.56224L14.6667 7.56574ZM14.6667 7.57875H15.2667L15.2667 7.57796L14.6667 7.57875ZM14.6667 8.42117L15.2667 8.42193V8.42117H14.6667ZM14.6667 8.43403L15.2667 8.43749L15.2667 8.43479L14.6667 8.43403ZM13.7719 9.42271L13.8324 10.0197L13.8351 10.0194L13.7719 9.42271ZM13.7591 9.42401L13.6986 8.82707L13.6985 8.82708L13.7591 9.42401ZM13.7363 9.42633L13.6756 8.82939L13.6715 8.82983L13.7363 9.42633ZM13.0649 11.0472L12.5973 11.4232L12.5999 11.4264L13.0649 11.0472ZM13.0794 11.065L12.6144 11.4442L12.6145 11.4444L13.0794 11.065ZM13.0874 11.0749L13.554 10.6976L13.5523 10.6955L13.0874 11.0749ZM13.021 12.4067L13.4458 12.8304L13.4477 12.8285L13.021 12.4067ZM13.012 12.4158L13.4363 12.84L13.4368 12.8395L13.012 12.4158ZM12.4163 13.0115L12.84 13.4363L12.8405 13.4358L12.4163 13.0115ZM12.4071 13.0207L12.8289 13.4474L12.8308 13.4455L12.4071 13.0207ZM11.0754 13.0871L10.696 13.552L10.6981 13.5536L11.0754 13.0871ZM11.0653 13.0789L11.4446 12.614L11.4445 12.6139L11.0653 13.0789ZM11.0473 13.0642L11.4265 12.5992L11.4233 12.5966L11.0473 13.0642ZM9.42652 13.7355L8.83001 13.6707L8.82959 13.6749L9.42652 13.7355ZM9.42415 13.7588L8.82722 13.6982L8.82721 13.6983L9.42415 13.7588ZM9.42282 13.772L10.0195 13.8352L10.0198 13.8325L9.42282 13.772ZM8.43429 14.6666L8.43507 15.2666L8.43783 15.2666L8.43429 14.6666ZM8.42113 14.6666V15.2666L8.42191 15.2666L8.42113 14.6666ZM7.57887 14.6666L7.57808 15.2666H7.57887V14.6666ZM7.56587 14.6666L7.56237 15.2666L7.56507 15.2666L7.56587 14.6666ZM6.57725 13.7719L5.9803 13.8324L5.98059 13.8351L6.57725 13.7719ZM6.57594 13.759L7.17289 13.6985L7.17287 13.6983L6.57594 13.759ZM6.57359 13.7357L7.17053 13.6751L7.17008 13.6709L6.57359 13.7357ZM4.95284 13.0644L4.57687 12.5968L4.57363 12.5994L4.95284 13.0644ZM4.93476 13.0792L4.55555 12.6142L4.55542 12.6143L4.93476 13.0792ZM4.92467 13.0874L5.30191 13.554L5.30401 13.5523L4.92467 13.0874ZM3.59299 13.021L3.16928 13.4458L3.17121 13.4477L3.59299 13.021ZM3.58378 13.0118L3.15952 13.436L3.16007 13.4366L3.58378 13.0118ZM2.98815 12.4162L2.56334 12.8399L2.56389 12.8404L2.98815 12.4162ZM2.97897 12.4069L2.55224 12.8287L2.55416 12.8307L2.97897 12.4069ZM2.91256 11.0753L2.44768 10.6959L2.44597 10.698L2.91256 11.0753ZM2.92078 11.0652L3.38565 11.4445L3.38574 11.4444L2.92078 11.0652ZM2.9355 11.0471L3.40048 11.4264L3.4031 11.4231L2.9355 11.0471ZM2.26416 9.42637L2.32895 8.82986L2.32479 8.82944L2.26416 9.42637ZM2.241 9.42401L2.30163 8.82709L2.30148 8.82707L2.241 9.42401ZM2.22808 9.42271L2.1649 10.0194L2.1676 10.0196L2.22808 9.42271ZM1.33339 8.43408L0.733385 8.43487L0.733401 8.43758L1.33339 8.43408ZM1.33337 8.4211H0.733373L0.733375 8.42189L1.33337 8.4211ZM1.33337 7.57882L0.733374 7.57803V7.57882H1.33337ZM1.33339 7.56569L0.733395 7.56215L0.733392 7.5649L1.33339 7.56569ZM2.22801 6.57714L2.16752 5.98019L2.1648 5.98048L2.22801 6.57714ZM2.24108 6.57581L2.30157 7.17276L2.30173 7.17274L2.24108 6.57581ZM2.26451 6.57343L2.32516 7.17038L2.32936 7.16992L2.26451 6.57343ZM2.93581 4.95276L3.40346 4.57683L3.40078 4.57355L2.93581 4.95276ZM2.92089 4.93446L3.38587 4.55525L3.38577 4.55514L2.92089 4.93446ZM2.91253 4.92421L2.44591 5.3014L2.44765 5.30354L2.91253 4.92421ZM2.97894 3.59266L2.55411 3.16895L2.55217 3.17091L2.97894 3.59266ZM2.98826 3.58331L2.564 3.15905L2.56344 3.15961L2.98826 3.58331ZM3.58381 2.98776L3.1601 2.56294L3.15955 2.5635L3.58381 2.98776ZM3.59302 2.97858L3.17124 2.55184L3.16932 2.55376L3.59302 2.97858ZM4.9247 2.91216L5.30404 2.44728L5.30193 2.44557L4.9247 2.91216ZM4.93484 2.92043L4.5555 3.3853L4.55561 3.38538L4.93484 2.92043ZM4.95278 2.93506L4.57354 3.40002L4.57676 3.40262L4.95278 2.93506ZM6.57363 2.26368L7.17014 2.32841L7.17056 2.3243L6.57363 2.26368ZM6.57595 2.24079L7.17288 2.30141L7.1729 2.30126L6.57595 2.24079ZM6.57725 2.22803L5.98057 2.16489L5.9803 2.16756L6.57725 2.22803ZM7.56594 1.33327L7.56517 0.733263L7.56249 0.733278L7.56594 1.33327ZM7.57877 1.33325V0.733251L7.578 0.733252L7.57877 1.33325ZM8.42122 1.33325L8.42201 0.733252H8.42122V1.33325ZM8.43421 1.33327L8.4377 0.733273L8.43499 0.733269L8.43421 1.33327ZM10.0211 2.1804L10.0198 2.16748L8.82588 2.28843L8.82719 2.30135L10.0211 2.1804ZM10.0234 2.2034L10.0211 2.18025L8.82721 2.30151L8.82956 2.32467L10.0234 2.2034ZM10.6713 2.46778C10.425 2.66582 10.0571 2.51344 10.023 2.19924L8.83 2.32883C8.96651 3.58562 10.438 4.19513 11.4232 3.40298L10.6713 2.46778ZM10.6861 2.45571L10.668 2.47041L11.4265 3.40035L11.4445 3.38564L10.6861 2.45571ZM10.696 2.4476L10.686 2.4558L11.4446 3.38554L11.4547 3.37734L10.696 2.4476ZM12.8288 2.55216C12.2493 1.97932 11.3318 1.93356 10.6981 2.44589L11.4526 3.37905C11.611 3.25096 11.8404 3.2624 11.9853 3.40561L12.8288 2.55216ZM12.8399 2.56324L12.8308 2.55408L11.9833 3.4037L11.9925 3.41287L12.8399 2.56324ZM13.4361 3.15943L12.8405 2.56379L11.992 3.41232L12.5876 4.00796L13.4361 3.15943ZM13.4459 3.16917L13.4367 3.15997L12.5871 4.00742L12.5962 4.01661L13.4459 3.16917ZM13.554 5.30182C14.0664 4.66815 14.0206 3.75066 13.4478 3.17111L12.5943 4.01468C12.7375 4.15957 12.749 4.38894 12.6209 4.54736L13.554 5.30182ZM13.5441 5.314L13.5523 5.30393L12.6226 4.54525L12.6144 4.55531L13.5441 5.314ZM13.5295 5.33192L13.5442 5.31386L12.6143 4.55544L12.5996 4.5735L13.5295 5.33192ZM13.8007 5.97697C13.4865 5.94284 13.3341 5.57497 13.5321 5.32867L12.5969 4.57674C11.8048 5.56195 12.4143 7.03343 13.6711 7.16996L13.8007 5.97697ZM13.8197 5.97889L13.7965 5.97654L13.6752 7.17039L13.6984 7.17275L13.8197 5.97889ZM13.8325 5.98019L13.8196 5.97888L13.6986 7.17276L13.7115 7.17407L13.8325 5.98019ZM15.2667 7.56224C15.2619 6.74739 14.6455 6.06628 13.8352 5.98047L13.7088 7.1738C13.9114 7.19525 14.0655 7.36553 14.0667 7.56924L15.2667 7.56224ZM15.2667 7.57796L15.2667 7.56495L14.0667 7.56653L14.0667 7.57954L15.2667 7.57796ZM15.2667 8.42117V7.57875H14.0667V8.42117H15.2667ZM15.2667 8.43479L15.2667 8.42193L14.0667 8.42041L14.0667 8.43327L15.2667 8.43479ZM13.8351 10.0194C14.6455 9.93362 15.262 9.25242 15.2667 8.43749L14.0667 8.43057C14.0655 8.6343 13.9114 8.8046 13.7088 8.82604L13.8351 10.0194ZM13.8196 10.021L13.8324 10.0197L13.7115 8.82577L13.6986 8.82707L13.8196 10.021ZM13.7969 10.0233L13.8197 10.0209L13.6985 8.82708L13.6756 8.8294L13.7969 10.0233ZM13.5324 10.6712C13.3343 10.4249 13.4867 10.0569 13.801 10.0228L13.6715 8.82983C12.4146 8.96621 11.8049 10.438 12.5973 11.4232L13.5324 10.6712ZM13.5443 10.6858L13.5298 10.668L12.5999 11.4264L12.6144 11.4442L13.5443 10.6858ZM13.5523 10.6955L13.5442 10.6856L12.6145 11.4444L12.6226 11.4543L13.5523 10.6955ZM13.4477 12.8285C14.0207 12.249 14.0664 11.3313 13.554 10.6976L12.6209 11.4522C12.749 11.6106 12.7376 11.84 12.5943 11.9849L13.4477 12.8285ZM13.4368 12.8395L13.4458 12.8304L12.5962 11.983L12.5872 11.992L13.4368 12.8395ZM12.8405 13.4358L13.4363 12.84L12.5877 11.9915L11.992 12.5872L12.8405 13.4358ZM12.8308 13.4455L12.84 13.4363L11.9926 12.5867L11.9834 12.5958L12.8308 13.4455ZM10.6981 13.5536C11.3318 14.066 12.2493 14.0202 12.8289 13.4474L11.9853 12.5939C11.8404 12.7371 11.611 12.7486 11.4526 12.6205L10.6981 13.5536ZM10.686 13.5438L10.696 13.552L11.4547 12.6222L11.4446 12.614L10.686 13.5438ZM10.6681 13.5291L10.6861 13.5438L11.4445 12.6139L11.4265 12.5992L10.6681 13.5291ZM10.023 13.8003C10.0571 13.4861 10.425 13.3337 10.6713 13.5318L11.4233 12.5966C10.438 11.8044 8.96654 12.4139 8.83003 13.6707L10.023 13.8003ZM10.0211 13.8194L10.0234 13.7961L8.82959 13.6749L8.82722 13.6982L10.0211 13.8194ZM10.0198 13.8325L10.0211 13.8193L8.82721 13.6983L8.82588 13.7115L10.0198 13.8325ZM8.43783 15.2666C9.25259 15.2618 9.93362 14.6454 10.0195 13.8352L8.82616 13.7087C8.8047 13.9113 8.63444 14.0654 8.43075 14.0666L8.43783 15.2666ZM8.42191 15.2666L8.43507 15.2666L8.4335 14.0666L8.42034 14.0666L8.42191 15.2666ZM7.57887 15.2666H8.42113V14.0666H7.57887V15.2666ZM7.56507 15.2666L7.57808 15.2666L7.57966 14.0666L7.56666 14.0666L7.56507 15.2666ZM5.98059 13.8351C6.0664 14.6454 6.74751 15.2618 7.56237 15.2666L7.56936 14.0666C7.36565 14.0654 7.19537 13.9113 7.17392 13.7087L5.98059 13.8351ZM5.979 13.8194L5.98031 13.8324L7.1742 13.7114L7.17289 13.6985L5.979 13.8194ZM5.97666 13.7964L5.97902 13.8196L7.17287 13.6983L7.17051 13.6751L5.97666 13.7964ZM5.3288 13.532C5.5751 13.334 5.94296 13.4864 5.9771 13.8006L7.17008 13.6709C7.03354 12.4142 5.56209 11.8047 4.57688 12.5968L5.3288 13.532ZM5.31397 13.5441L5.33205 13.5294L4.57363 12.5994L4.55555 12.6142L5.31397 13.5441ZM5.30401 13.5523L5.31409 13.544L4.55542 12.6143L4.54534 12.6225L5.30401 13.5523ZM3.17121 13.4477C3.75076 14.0205 4.66823 14.0663 5.3019 13.554L4.54745 12.6208C4.38903 12.7489 4.15966 12.7374 4.01477 12.5942L3.17121 13.4477ZM3.16007 13.4366L3.16928 13.4458L4.0167 12.5961L4.00749 12.587L3.16007 13.4366ZM2.56389 12.8404L3.15952 13.436L4.00804 12.5875L3.41242 11.9919L2.56389 12.8404ZM2.55416 12.8307L2.56334 12.8399L3.41296 11.9924L3.40378 11.9832L2.55416 12.8307ZM2.44597 10.698C1.93365 11.3317 1.97941 12.2492 2.55225 12.8287L3.4057 11.9852C3.2625 11.8403 3.25106 11.6109 3.37914 11.4525L2.44597 10.698ZM2.45591 10.6858L2.44769 10.6959L3.37742 11.4546L3.38565 11.4445L2.45591 10.6858ZM2.47054 10.6679L2.45581 10.686L3.38574 11.4444L3.40047 11.4263L2.47054 10.6679ZM2.19936 10.0229C2.51356 10.057 2.66594 10.4249 2.4679 10.6712L3.4031 11.4231C4.19525 10.4379 3.58574 8.96639 2.32895 8.82988L2.19936 10.0229ZM2.18036 10.0209L2.20353 10.0233L2.32479 8.82944L2.30163 8.82709L2.18036 10.0209ZM2.1676 10.0196L2.18051 10.021L2.30148 8.82707L2.28856 8.82576L2.1676 10.0196ZM0.733401 8.43758C0.738144 9.25244 1.35455 9.93357 2.16491 10.0194L2.29126 8.82604C2.08867 8.80459 1.93457 8.63431 1.93338 8.43059L0.733401 8.43758ZM0.733375 8.42189L0.733391 8.43487L1.93339 8.4333L1.93337 8.42032L0.733375 8.42189ZM0.733374 7.57882L0.733374 8.4211H1.93337L1.93337 7.57882H0.733374ZM0.733392 7.5649L0.733375 7.57803L1.93337 7.57961L1.93339 7.56648L0.733392 7.5649ZM2.1648 5.98048C1.35454 6.06632 0.738198 6.74737 0.733402 7.56215L1.93338 7.56922C1.93458 7.36552 2.08866 7.19526 2.29123 7.1738L2.1648 5.98048ZM2.18058 5.97887L2.16752 5.9802L2.28851 7.17408L2.30157 7.17276L2.18058 5.97887ZM2.20386 5.97651L2.18043 5.97889L2.30173 7.17274L2.32515 7.17036L2.20386 5.97651ZM2.46818 5.32868C2.66617 5.57497 2.51381 5.94279 2.19965 5.97695L2.32936 7.16992C3.58599 7.03329 4.19541 5.56202 3.40345 4.57684L2.46818 5.32868ZM2.45592 5.31367L2.47084 5.33197L3.40078 4.57355L3.38587 4.55525L2.45592 5.31367ZM2.44765 5.30354L2.45601 5.31379L3.38577 4.55514L3.3774 4.54489L2.44765 5.30354ZM2.55217 3.17091C1.97947 3.75044 1.93372 4.66777 2.44591 5.3014L3.37914 4.54703C3.25109 4.38862 3.26253 4.15929 3.40571 4.0144L2.55217 3.17091ZM2.56344 3.15961L2.55411 3.16896L3.40377 4.01636L3.41309 4.00701L2.56344 3.15961ZM3.15955 2.5635L2.564 3.15905L3.41253 4.00757L4.00807 3.41203L3.15955 2.5635ZM3.16932 2.55376L3.1601 2.56294L4.00752 3.41258L4.01673 3.4034L3.16932 2.55376ZM5.30193 2.44557C4.66826 1.93326 3.75079 1.97902 3.17124 2.55184L4.0148 3.40531C4.15969 3.2621 4.38906 3.25066 4.54748 3.37874L5.30193 2.44557ZM5.31417 2.45556L5.30404 2.44729L4.54537 3.37703L4.5555 3.3853L5.31417 2.45556ZM5.33201 2.4701L5.31407 2.45547L4.55561 3.38538L4.57355 3.40001L5.33201 2.4701ZM5.97713 2.19894C5.94303 2.51318 5.5751 2.66558 5.32879 2.4675L4.57676 3.40262C5.56201 4.19496 7.03372 3.58535 7.17013 2.32841L5.97713 2.19894ZM5.97902 2.18017L5.9767 2.20306L7.17056 2.3243L7.17288 2.30141L5.97902 2.18017ZM5.9803 2.16756L5.97901 2.18032L7.1729 2.30126L7.17419 2.2885L5.9803 2.16756ZM7.56249 0.733278C6.74754 0.737965 6.06633 1.35445 5.98058 2.16489L7.17392 2.29116C7.19535 2.08855 7.36566 1.93443 7.56939 1.93326L7.56249 0.733278ZM7.578 0.733252L7.56517 0.733269L7.56672 1.93327L7.57954 1.93325L7.578 0.733252ZM8.42122 0.733252H7.57877V1.93325H8.42122V0.733252ZM8.43499 0.733269L8.42201 0.733252L8.42044 1.93325L8.43343 1.93327L8.43499 0.733269ZM10.0195 2.16478C9.93369 1.35443 9.25257 0.738023 8.4377 0.733279L8.43072 1.93326C8.63443 1.93444 8.80471 2.08855 8.82616 2.29113L10.0195 2.16478ZM10.0667 7.99992C10.0667 9.14131 9.14143 10.0666 8.00004 10.0666V11.2666C9.80417 11.2666 11.2667 9.80405 11.2667 7.99992H10.0667ZM8.00004 5.93325C9.14143 5.93325 10.0667 6.85853 10.0667 7.99992H11.2667C11.2667 6.19579 9.80417 4.73325 8.00004 4.73325V5.93325ZM5.93337 7.99992C5.93337 6.85853 6.85865 5.93325 8.00004 5.93325V4.73325C6.19591 4.73325 4.73337 6.19579 4.73337 7.99992H5.93337ZM8.00004 10.0666C6.85865 10.0666 5.93337 9.14131 5.93337 7.99992H4.73337C4.73337 9.80405 6.19591 11.2666 8.00004 11.2666V10.0666Z" fill="#8E8EA9"/>
</svg>
