<svg width="16" height="16" viewBox="0 0 16 16" fill="none" xmlns="http://www.w3.org/2000/svg">
<path fill-rule="evenodd" clip-rule="evenodd" d="M8.2 -0.00012207V3.60007L8.19999 3.65448C8.19991 4.07855 8.19983 4.49068 8.24553 4.83059C8.29705 5.21379 8.42257 5.65107 8.78579 6.01429C9.149 6.3775 9.58628 6.50302 9.96948 6.55454C10.3094 6.60024 10.7215 6.60016 11.1456 6.60008H11.1456L11.2 6.60007H14.8V11.1999C14.8 13.4626 14.8 14.594 14.0971 15.2969C13.3941 15.9999 12.2627 15.9999 10 15.9999H6.8C4.53726 15.9999 3.40589 15.9999 2.70294 15.2969C2 14.594 2 13.4626 2 11.1999V4.79988C2 2.53714 2 1.40577 2.70294 0.702822C3.40589 -0.00012207 4.53726 -0.00012207 6.8 -0.00012207H8.2ZM10.2 0.0118525V3.60007C10.2 4.09975 10.2021 4.3739 10.2277 4.5641L10.2287 4.57138L10.236 4.57238C10.4262 4.59795 10.7003 4.60007 11.2 4.60007H14.788C14.7741 4.37663 14.7438 4.2087 14.6782 4.05033C14.5564 3.7563 14.3252 3.52507 13.8628 3.06264L13.8628 3.06263L13.8627 3.06262L11.7373 0.937136C11.2748 0.474688 11.0436 0.243463 10.7496 0.121671C10.5912 0.0560906 10.4233 0.0258225 10.2 0.0118525ZM5.00001 8.80007C5.00001 8.24779 5.44773 7.80007 6.00001 7.80007L10.8 7.80007C11.3523 7.80007 11.8 8.24779 11.8 8.80007C11.8 9.35236 11.3523 9.80007 10.8 9.80007L6.00001 9.80007C5.44773 9.80007 5.00001 9.35236 5.00001 8.80007ZM6.00001 10.9999C5.44773 10.9999 5.00001 11.4476 5.00001 11.9999C5.00001 12.5522 5.44773 12.9999 6.00001 12.9999H9.20001C9.7523 12.9999 10.2 12.5522 10.2 11.9999C10.2 11.4476 9.7523 10.9999 9.20001 10.9999H6.00001Z" fill="#8E8EA9"/>
</svg>
