<svg width="11" height="10" viewBox="0 0 11 10" fill="none" xmlns="http://www.w3.org/2000/svg">
<path d="M10.6217 5.56852C10.6217 5.69279 10.521 5.79352 10.3967 5.79352H6.41523V9.775C6.41523 9.89926 6.31449 10 6.19023 10H5.05318C4.92892 10 4.82818 9.89926 4.82818 9.775V5.79352H0.846704C0.72244 5.79352 0.621704 5.69279 0.621704 5.56852V4.43148C0.621704 4.30721 0.72244 4.20648 0.846704 4.20648H4.82818V0.225C4.82818 0.100735 4.92892 0 5.05318 0H6.19023C6.31449 0 6.41523 0.100736 6.41523 0.225V4.20648H10.3967C10.521 4.20648 10.6217 4.30721 10.6217 4.43148V5.56852Z" fill="#4A5154"/>
</svg>
